<svg width="20" height="20" viewBox="0 0 20 20" fill="none" xmlns="http://www.w3.org/2000/svg">
<path d="M7.25866 6.42508L9.16699 4.50841V12.5001C9.16699 12.7211 9.25479 12.9331 9.41107 13.0893C9.56735 13.2456 9.77931 13.3334 10.0003 13.3334C10.2213 13.3334 10.4333 13.2456 10.5896 13.0893C10.7459 12.9331 10.8337 12.7211 10.8337 12.5001V4.50841L12.742 6.42508C12.8195 6.50318 12.9116 6.56518 13.0132 6.60749C13.1147 6.64979 13.2236 6.67158 13.3337 6.67158C13.4437 6.67158 13.5526 6.64979 13.6541 6.60749C13.7557 6.56518 13.8479 6.50318 13.9253 6.42508C14.0034 6.34761 14.0654 6.25544 14.1077 6.15389C14.15 6.05234 14.1718 5.94342 14.1718 5.83341C14.1718 5.7234 14.15 5.61448 14.1077 5.51293C14.0654 5.41138 14.0034 5.31921 13.9253 5.24174L10.592 1.90841C10.5127 1.83254 10.4193 1.77307 10.317 1.73341C10.1141 1.65006 9.88654 1.65006 9.68366 1.73341C9.58137 1.77307 9.48791 1.83254 9.40866 1.90841L6.07533 5.24174C5.99763 5.31944 5.93599 5.41168 5.89394 5.5132C5.85189 5.61472 5.83025 5.72353 5.83025 5.83341C5.83025 5.94329 5.85189 6.0521 5.89394 6.15362C5.93599 6.25514 5.99763 6.34738 6.07533 6.42508C6.15302 6.50278 6.24527 6.56441 6.34678 6.60646C6.4483 6.64851 6.55711 6.67015 6.66699 6.67015C6.77687 6.67015 6.88568 6.64851 6.9872 6.60646C7.08872 6.56441 7.18096 6.50278 7.25866 6.42508ZM17.5003 11.6667C17.2793 11.6667 17.0673 11.7545 16.9111 11.9108C16.7548 12.0671 16.667 12.2791 16.667 12.5001V15.8334C16.667 16.0544 16.5792 16.2664 16.4229 16.4227C16.2666 16.5789 16.0547 16.6667 15.8337 16.6667H4.16699C3.94598 16.6667 3.73402 16.5789 3.57774 16.4227C3.42146 16.2664 3.33366 16.0544 3.33366 15.8334V12.5001C3.33366 12.2791 3.24586 12.0671 3.08958 11.9108C2.9333 11.7545 2.72134 11.6667 2.50033 11.6667C2.27931 11.6667 2.06735 11.7545 1.91107 11.9108C1.75479 12.0671 1.66699 12.2791 1.66699 12.5001V15.8334C1.66699 16.4965 1.93038 17.1323 2.39923 17.6012C2.86807 18.07 3.50395 18.3334 4.16699 18.3334H15.8337C16.4967 18.3334 17.1326 18.07 17.6014 17.6012C18.0703 17.1323 18.3337 16.4965 18.3337 15.8334V12.5001C18.3337 12.2791 18.2459 12.0671 18.0896 11.9108C17.9333 11.7545 17.7213 11.6667 17.5003 11.6667Z" fill="#247B7B"/>
</svg>
